# xmcd
#
# Track frame offsets:
#	150
#	18926
#	34931
#	53207
#	63169
#	82332
#	101352
#	119038
#	132154
#	149603
#	162572
#	177162
#	194297
#	210475
#	228875
#	252497
#	270230
#	284696
#	304613
#	321957
#	351531
#
# Disc length: 4693 seconds
#
# Revision: 1
# Processed by: cddbd v1.5.1PL2 Copyright (c) Steve Scherf et al.
# Submitted via: audiograbber 1.83.01
#
DISCID=41125315
DTITLE=Vaiious - TTFP-44
DYEAR=1900
DGENRE=Country
TTITLE0=Lonestar - Not a Day Goes By
TTITLE1=Rascal Flatts - Praying for Daylight
TTITLE2=Toby Keith - Pull My Chain
TTITLE3=Colin Powell - Taliban Song
TTITLE4=Travis Tritt - The Best of Intentions
TTITLE5=Tim McGraw - The Cowboy in Me
TTITLE6=Brooks and Dunn - The Long Goodbye
TTITLE7=George Jones - The Man He Was
TTITLE8=Gary Allen - The One
TTITLE9=Tim McGraw - Thicker Than Blood
TTITLE10=Alan Jackson - Three Minute Up Tempo Love Song
TTITLE11=Kenny Chesney - The Tin Man
TTITLE12=Tommy Steiner - What if She's an Angel
TTITLE13=Alan Jackson - Where I Come From
TTITLE14=Alan Jackson - Where Were You When The World Stopped Turning
TTITLE15=Lonestar - With Me
TTITLE16=Brad Paisley - Wrapped Around
TTITLE17=Garth Brooks - Wrapped Up In You
TTITLE18=Toby Keith - You Shouldn't Kiss Me Like That
TTITLE19=Kenny Chesney - Young
TTITLE20=Data Track - Data Track
EXTD=
EXTT0=
EXTT1=
EXTT2=
EXTT3=
EXTT4=
EXTT5=
EXTT6=
EXTT7=
EXTT8=
EXTT9=
EXTT10=
EXTT11=
EXTT12=
EXTT13=
EXTT14=
EXTT15=
EXTT16=
EXTT17=
EXTT18=
EXTT19=
EXTT20=
PLAYORDER=
